<svg xmlns="http://www.w3.org/2000/svg"  viewBox="0 0 24 24" width="32px" height="32px"><path fill="#ffffff" d="M2.165,22.871C2.26,22.957,2.38,23,2.5,23c0.136,0,0.272-0.056,0.371-0.164L12,12.746l9.129,10.09	C21.228,22.944,21.364,23,21.5,23c0.12,0,0.24-0.043,0.335-0.129c0.205-0.186,0.221-0.502,0.035-0.707L12.675,12l9.196-10.164	c0.186-0.205,0.169-0.521-0.035-0.707c-0.205-0.184-0.521-0.168-0.706,0.035L12,11.254L2.871,1.164	C2.686,0.961,2.369,0.945,2.165,1.129C1.96,1.314,1.944,1.631,2.129,1.836L11.325,12L2.129,22.164	C1.944,22.369,1.96,22.686,2.165,22.871z"/></svg>